<?xml version="1.0" standalone="no"?>
<!DOCTYPE svg PUBLIC "-//W3C//DTD SVG 20010904//EN"
 "http://www.w3.org/TR/2001/REC-SVG-20010904/DTD/svg10.dtd">
<svg version="1.0" xmlns="http://www.w3.org/2000/svg"
 width="900.000000pt" height="944.000000pt" viewBox="0 0 900.000000 944.000000"
 preserveAspectRatio="xMidYMid meet">

<g transform="translate(0.000000,944.000000) scale(0.100000,-0.100000)"
fill="#000000" stroke="none">
<path d="M5615 9341 c-101 -36 -392 -174 -413 -196 -7 -7 115 34 178 59 71 29
73 30 66 17 -3 -4 -34 -19 -68 -31 -35 -13 -98 -38 -141 -57 -43 -19 -95 -36
-116 -38 -47 -4 -127 -37 -311 -129 -132 -67 -155 -75 -255 -90 -137 -22 -321
-81 -452 -145 l-101 -49 -134 67 c-241 121 -591 257 -753 291 -33 7 -68 20
-78 29 -16 13 -19 13 -27 1 -32 -50 25 -379 121 -699 47 -154 68 -208 115
-287 18 -31 18 -32 -8 -90 -14 -33 -33 -85 -43 -118 l-16 -58 -47 5 c-192 25
-420 40 -607 41 -195 1 -220 -1 -223 -15 -3 -18 120 -142 378 -381 191 -176
320 -284 393 -329 31 -19 55 -38 54 -43 -2 -5 -42 -20 -90 -32 -174 -47 -342
-157 -417 -275 -18 -27 -33 -49 -35 -49 -2 0 -41 24 -87 53 -47 29 -107 61
-134 71 -27 9 -57 21 -66 26 -33 18 -212 -23 -349 -81 -41 -17 -126 -50 -189
-74 -173 -64 -298 -121 -366 -167 -66 -44 -105 -97 -147 -201 -23 -57 -27 -60
-106 -102 -206 -111 -386 -285 -558 -540 -81 -120 -118 -188 -139 -259 -10
-32 -24 -60 -31 -63 -6 -3 -30 10 -51 27 -26 20 -48 30 -63 28 -34 -4 -35 -51
-4 -243 54 -335 133 -579 199 -615 39 -20 32 -37 -19 -45 -60 -9 -107 -29
-175 -75 -73 -50 -186 -171 -201 -217 -7 -22 -10 -78 -7 -152 4 -116 4 -116
54 -215 27 -54 67 -117 89 -140 62 -64 196 -138 292 -162 6 -1 14 -32 18 -71
6 -64 16 -129 31 -217 8 -44 14 -43 -79 -10 -64 22 -116 7 -174 -50 -64 -64
-78 -122 -78 -336 0 -244 22 -319 146 -501 77 -113 157 -187 243 -229 60 -28
76 -32 126 -27 111 10 206 73 250 166 28 61 46 67 189 58 460 -30 513 -42 870
-198 102 -44 134 -63 177 -107 65 -65 124 -92 217 -99 57 -4 84 -1 132 16 32
11 62 21 66 21 4 0 9 -42 11 -92 9 -204 116 -320 334 -365 87 -17 183 -8 259
26 l42 18 89 -30 c49 -16 136 -42 194 -57 64 -16 105 -31 105 -39 0 -7 -22
-21 -50 -31 -158 -57 -268 -101 -327 -130 l-68 -33 -83 12 c-125 17 -206 -7
-250 -74 -12 -19 -27 -37 -33 -39 -6 -2 -60 6 -120 19 -134 30 -160 31 -174 6
-15 -29 52 -122 164 -228 l94 -89 10 -85 c32 -261 209 -492 422 -549 173 -47
244 -31 414 94 l69 50 131 9 c247 16 509 -7 803 -73 252 -57 337 -84 381 -124
94 -83 159 -107 282 -108 136 0 235 37 347 130 95 80 190 230 193 307 0 12 43
60 108 120 59 55 135 131 170 169 l62 70 0 82 c0 115 -42 313 -68 322 -5 1
-68 -38 -138 -88 l-128 -91 -35 39 c-69 75 -142 100 -243 82 l-59 -11 -110 62
c-141 80 -243 150 -247 170 -7 36 515 189 644 189 12 0 38 -13 59 -30 49 -39
101 -53 202 -52 139 0 241 48 364 171 88 88 117 149 143 304 7 37 7 37 54 37
61 0 164 23 224 48 65 28 122 83 147 141 l21 49 162 -5 c340 -11 537 41 827
216 46 28 90 51 97 51 8 0 20 -13 29 -29 22 -43 58 -67 135 -92 83 -26 126
-23 237 18 106 39 144 69 205 162 104 159 142 285 143 473 l0 126 -45 88 c-51
99 -80 126 -148 134 l-47 5 -7 77 c-9 101 -21 143 -57 200 l-30 47 -48 -14
c-54 -16 -211 -72 -324 -116 -41 -16 -81 -29 -88 -29 -26 0 -250 86 -248 95 4
15 176 97 314 149 l125 48 22 -20 c57 -54 211 -101 285 -87 46 9 106 40 157
80 76 62 142 239 129 345 -14 112 -109 242 -217 299 -40 20 -68 41 -68 50 0 9
7 51 15 94 8 43 15 92 15 108 0 19 13 47 34 75 45 59 92 172 107 258 22 131
-20 307 -92 382 -20 20 -36 54 -50 105 -43 156 -157 345 -287 476 -251 254
-609 425 -1062 509 -134 24 -159 26 -330 21 -102 -3 -201 -10 -220 -16 -43
-13 -50 -7 -67 61 -44 170 -286 384 -470 416 -58 10 -58 12 -9 139 20 50 44
136 53 190 l18 100 63 52 c106 88 281 301 368 448 23 39 23 43 7 51 -11 6 -73
6 -156 0 -76 -5 -186 -7 -244 -6 l-106 3 -33 78 c-44 105 -79 172 -122 232
-113 158 -298 310 -445 365 -31 12 -57 27 -57 35 0 7 30 102 66 210 53 161
103 340 104 378 0 12 -43 7 -95 -12z m22 -88 c-3 -10 -42 -124 -87 -253 -138
-398 -223 -725 -324 -1240 -35 -184 -66 -346 -68 -359 -2 -20 -64 -59 -378
-238 -206 -117 -387 -222 -402 -233 -15 -11 -33 -20 -40 -20 -31 0 -295 169
-468 301 -206 157 -268 214 -280 261 -7 22 -18 51 -25 62 -8 12 -30 59 -49
104 -35 81 -35 84 -16 89 18 5 17 7 -11 22 -34 18 -57 65 -175 354 -84 207
-133 368 -183 607 -23 107 -48 207 -56 222 -19 33 -19 54 -1 61 16 6 132 -33
226 -76 228 -104 672 -278 806 -316 38 -10 82 -24 98 -30 l28 -11 -6 -78 c-19
-237 -27 -637 -17 -807 11 -175 42 -430 55 -442 14 -14 14 11 -1 162 -18 184
-23 626 -9 947 l8 208 185 111 c361 217 578 332 902 478 73 33 141 67 151 76
14 13 106 50 134 54 4 0 6 -7 3 -16z m-3252 -1423 c3 -5 1 -10 -4 -10 -6 0
-11 5 -11 10 0 6 2 10 4 10 3 0 8 -4 11 -10z m-198 -986 c-3 -3 -12 -4 -19 -1
-8 3 -5 6 6 6 11 1 17 -2 13 -5z m27 -61 c-70 -160 -250 -775 -324 -1107 -22
-99 -43 -182 -45 -185 -11 -11 -2 62 41 340 46 292 46 295 40 479 -3 102 -9
213 -12 248 -6 57 -9 62 -28 57 -45 -12 -470 -229 -513 -262 -25 -19 -47 -32
-50 -29 -9 9 17 62 40 84 69 64 308 198 472 265 93 38 349 125 374 126 9 1 11
-5 5 -16z m420 -192 c115 -101 206 -202 349 -392 l27 -36 -16 -159 c-20 -214
-101 -620 -120 -602 -2 3 2 84 10 179 9 96 18 255 22 354 4 99 11 188 16 198
12 23 -13 62 -121 195 -42 51 -104 130 -139 175 -35 45 -79 98 -98 117 -32 34
-41 50 -28 50 3 0 47 -36 98 -79z m1889 -37 c51 -32 119 -73 151 -92 70 -41
245 -124 299 -141 20 -7 37 -16 37 -20 0 -12 -101 -48 -172 -62 -36 -7 -157
-12 -283 -13 -199 -1 -229 1 -317 23 -54 13 -98 26 -98 29 0 3 31 37 69 76 85
88 141 153 181 211 17 25 33 45 36 45 2 0 46 -25 97 -56z m2351 -24 c-11 -4
-47 -11 -80 -14 l-59 -5 60 13 c33 8 69 14 80 14 19 1 19 0 -1 -8z m-159 -30
c-3 -5 -15 -10 -27 -10 -11 0 -51 -11 -89 -25 -38 -13 -69 -21 -69 -16 0 7 60
35 120 54 28 10 71 7 65 -3z m385 -44 c0 -7 22 -80 48 -162 47 -143 76 -246
88 -309 3 -16 16 -82 28 -145 13 -63 29 -153 35 -200 7 -47 16 -112 21 -145 5
-33 14 -163 20 -289 6 -127 12 -232 14 -234 12 -11 18 131 13 268 -14 353
-108 836 -221 1139 -20 52 -33 97 -31 100 8 7 69 -24 225 -116 163 -97 182
-110 295 -203 44 -37 114 -92 156 -123 l76 -56 32 -128 c45 -185 58 -269 66
-442 9 -182 19 -235 29 -151 3 30 7 77 9 105 2 49 4 51 64 96 109 83 274 125
387 100 67 -15 161 -76 195 -126 31 -46 61 -155 61 -221 0 -135 -33 -214 -157
-379 -121 -161 -299 -327 -473 -442 -30 -20 -82 -58 -116 -83 -33 -26 -94 -59
-135 -74 -177 -66 -426 -148 -468 -153 l-46 -5 3 63 c5 77 -8 72 -19 -7 -4
-31 -10 -58 -13 -61 -13 -14 -196 -25 -326 -20 -194 7 -301 28 -513 98 -98 32
-186 59 -195 59 -27 0 -140 57 -222 112 -100 67 -167 133 -256 252 -83 111
-120 203 -130 330 -6 64 -3 79 25 151 17 44 31 83 31 88 0 4 17 31 38 59 31
43 51 57 127 93 50 24 108 48 130 54 137 37 305 -31 398 -162 50 -71 86 -111
94 -104 2 3 -29 68 -70 144 -42 76 -91 183 -110 238 -20 55 -49 137 -66 183
-17 46 -31 93 -31 104 0 31 68 116 205 256 148 153 250 231 481 370 173 105
204 116 204 78z m-593 -12 c-3 -3 -12 -4 -19 -1 -8 3 -5 6 6 6 11 1 17 -2 13
-5z m-62 -17 c-17 -7 -55 -29 -86 -49 -30 -21 -73 -45 -95 -54 -21 -9 -72 -43
-112 -75 -40 -32 -79 -56 -87 -53 -7 3 -16 1 -20 -5 -3 -6 1 -11 10 -11 17 0
-71 -113 -140 -179 -19 -19 -35 -38 -35 -43 0 -5 -9 -7 -19 -3 -15 5 -18 2
-14 -13 3 -14 -2 -21 -16 -25 -12 -3 -21 -12 -21 -20 0 -9 -22 -51 -50 -94
-137 -217 -142 -226 -166 -328 -55 -229 -53 -223 -86 -219 -25 3 -28 2 -18
-10 6 -8 17 -14 23 -12 7 1 9 1 5 -1 -5 -3 -8 -9 -8 -14 0 -6 5 -7 10 -4 6 3
10 -3 10 -14 0 -11 -4 -23 -10 -26 -5 -3 -10 1 -10 10 0 9 -9 19 -20 22 -11 3
-20 14 -20 24 0 11 -7 19 -15 19 -38 0 0 182 75 357 58 135 106 218 188 325
136 178 191 239 279 310 76 60 391 197 453 197 24 -1 24 -1 -5 -12z m-791
-151 c4 -21 25 -55 53 -86 l46 -51 -34 -34 c-32 -32 -41 -35 -146 -50 -133
-19 -320 -58 -382 -79 -54 -20 -64 -20 -54 -2 15 26 118 131 193 196 41 36 84
75 95 87 14 15 43 27 95 36 121 23 127 23 134 -17z m-479 -16 c93 -24 123 -25
161 -5 46 23 41 8 -12 -37 -122 -104 -237 -238 -227 -264 3 -8 -1 -14 -10 -14
-10 0 -22 21 -34 57 -20 60 -43 82 -43 41 0 -13 7 -55 15 -93 12 -58 12 -72 1
-80 -18 -14 -40 -59 -65 -136 -33 -101 -41 -168 -26 -206 12 -27 11 -31 -1
-26 -19 7 -18 -26 2 -55 8 -12 22 -22 30 -22 8 0 19 -11 24 -24 5 -13 14 -27
19 -31 36 -22 -17 -59 -154 -107 -151 -54 -156 -49 -124 99 11 54 25 102 30
107 5 6 36 -3 77 -22 75 -35 117 -43 92 -18 -8 8 -78 49 -155 90 -147 80 -176
87 -245 64 -19 -6 -62 -12 -95 -13 -33 0 -67 -4 -76 -9 -15 -6 -18 7 -24 121
-7 135 -14 173 -30 173 -11 0 -11 -10 -4 -185 l4 -109 -80 -33 c-44 -18 -86
-33 -94 -33 -12 0 -12 22 -5 133 4 72 7 152 6 177 -1 30 4 51 16 65 10 11 40
52 66 92 l49 72 -53 48 c-30 26 -75 66 -102 87 l-49 40 25 25 c19 19 28 22 39
13 7 -6 63 -22 123 -34 95 -20 138 -23 334 -22 198 0 236 3 321 23 53 12 113
33 135 46 49 29 45 29 139 5z m-1220 -90 c-8 -24 11 -26 39 -5 31 23 45 18
100 -33 28 -26 66 -59 84 -75 37 -30 37 -43 -2 -90 l-23 -28 -204 35 c-112 20
-251 45 -309 56 -58 11 -133 20 -167 20 -35 0 -63 3 -63 8 0 4 14 24 30 46
l29 38 143 4 c85 3 179 12 233 23 119 25 118 25 110 1z m-2750 -27 c-4 -10
-22 -72 -39 -138 -22 -84 -36 -120 -46 -120 -8 0 -16 10 -18 23 -2 12 -8 22
-14 22 -6 0 -8 -9 -5 -20 3 -11 1 -20 -3 -20 -5 0 -10 10 -12 23 -3 19 -13 13
-82 -57 -58 -57 -75 -80 -65 -86 10 -7 10 -14 1 -34 -10 -22 -16 -25 -42 -20
-25 5 -30 3 -30 -12 0 -14 3 -15 12 -6 7 7 17 12 23 12 5 -1 -1 -10 -14 -21
-14 -11 -30 -30 -35 -41 -6 -11 -21 -28 -34 -36 -23 -15 -23 -15 -17 14 l7 29
-16 -22 c-16 -22 -16 -25 1 -53 13 -23 15 -32 5 -42 -7 -7 -12 -20 -12 -30 0
-10 -7 -18 -16 -18 -9 0 -25 -10 -35 -22 -19 -21 -20 -21 -35 -2 -12 15 -15
16 -10 2 3 -10 -2 -19 -12 -23 -14 -5 -14 -8 -2 -15 11 -7 11 -14 3 -32 -9
-19 -8 -26 3 -34 9 -6 11 -14 5 -22 -6 -11 -14 -8 -35 13 -14 14 -26 22 -26
16 0 -5 12 -19 27 -31 27 -21 28 -22 8 -36 -17 -13 -18 -16 -5 -24 17 -11 11
-19 -20 -25 -13 -3 -27 -9 -30 -15 -5 -8 -20 -4 -44 11 -34 20 -38 26 -33 54
9 58 86 239 133 315 97 156 256 321 452 467 101 75 119 85 107 56z m2390 -197
c72 -14 202 -34 290 -46 88 -12 164 -25 168 -29 4 -4 -28 -63 -72 -129 -44
-67 -92 -144 -105 -171 -29 -56 -38 -61 -117 -61 l-59 0 -44 94 c-47 102 -100
184 -183 289 -52 64 -60 93 -25 83 10 -3 76 -16 147 -30z m2011 19 c-3 -9 -23
-41 -44 -73 -79 -116 -146 -279 -183 -444 -6 -32 -17 -58 -24 -58 -6 0 -15 27
-21 63 l-9 62 -49 5 -50 5 -23 60 c-34 87 -62 192 -65 250 l-3 49 60 14 c138
32 372 80 394 81 17 1 22 -3 17 -14z m-4643 -179 c3 -8 0 -20 -8 -26 -10 -8
-14 -8 -18 2 -10 29 15 52 26 24z m3010 -359 c53 -69 107 -120 155 -146 41
-22 25 9 -43 80 -36 38 -65 74 -65 79 0 6 20 10 44 10 25 0 82 12 126 26 45
14 83 24 85 22 3 -3 -11 -89 -24 -143 -5 -21 -14 -31 -29 -33 -27 -4 -34 -19
-69 -159 -17 -66 -31 -103 -40 -103 -7 0 -13 8 -13 18 0 10 -16 34 -36 53 -40
38 -131 172 -165 242 -20 41 -21 50 -10 86 6 23 16 41 21 41 5 0 33 -33 63
-73z m-125 -5 c-2 -54 131 -284 180 -311 22 -12 7 -29 -40 -43 -38 -11 -42
-11 -56 10 -17 26 -48 28 -99 7 -20 -8 -38 -13 -40 -11 -3 2 -8 28 -13 58 -6
42 -41 230 -53 291 -2 12 40 24 90 26 28 1 32 -2 31 -27z m1442 -8 c0 -86
-141 -253 -303 -358 -103 -68 -225 -126 -262 -126 -24 0 -26 3 -21 28 3 15 11
69 16 121 6 51 13 97 15 101 3 4 26 11 52 15 99 14 301 113 432 212 53 40 71
42 71 7z m-4670 -286 c58 -38 162 -98 232 -134 120 -61 156 -84 126 -84 -7 0
-40 12 -73 26 -33 14 -108 43 -167 64 -127 47 -315 139 -342 168 -15 18 -45
118 -46 160 0 7 37 -20 83 -59 45 -40 129 -103 187 -141z m4718 199 c8 -9 8
-52 0 -147 -8 -108 -14 -139 -28 -154 -19 -19 -20 -19 -78 7 -73 33 -105 34
-126 5 -15 -22 -16 -22 -30 -4 -14 17 -8 25 84 113 67 64 106 110 122 143 24
51 38 60 56 37z m-1048 -52 c30 -8 129 -24 220 -36 91 -11 169 -25 174 -29 10
-10 -12 -236 -26 -262 -12 -24 -126 -24 -316 -2 -75 9 -149 13 -164 10 -33 -7
-40 3 -29 40 5 16 21 83 36 149 31 142 32 145 42 145 4 0 33 -7 63 -15z
m-3660 -71 c0 -3 -7 -1 -15 6 -8 7 -15 17 -15 22 0 5 7 3 15 -6 8 -8 15 -18
15 -22z m4807 -56 c-2 -18 -4 -6 -4 27 0 33 2 48 4 33 2 -15 2 -42 0 -60z m53
18 c0 -3 -4 -8 -10 -11 -5 -3 -10 -1 -10 4 0 6 5 11 10 11 6 0 10 -2 10 -4z
m29 -48 c-1 -7 -4 -24 -9 -38 l-7 -25 -8 27 c-7 28 -1 48 16 48 5 0 9 -6 8
-12z m-53 -54 c9 3 16 -3 20 -19 3 -14 10 -25 15 -25 8 0 12 -102 9 -208 -1
-37 4 -47 42 -83 24 -22 61 -53 84 -70 22 -16 58 -53 79 -82 101 -135 262
-282 374 -341 71 -37 346 -131 501 -172 52 -14 100 -30 106 -37 20 -21 83
-172 76 -179 -18 -18 -364 94 -501 163 -76 38 -108 60 -126 88 -41 59 -150
164 -210 200 -37 22 -73 36 -106 39 -49 5 -52 7 -116 86 -36 44 -98 130 -137
191 -61 93 -76 124 -95 200 -24 97 -50 282 -41 291 3 3 6 -6 8 -21 2 -18 8
-25 18 -21z m-1524 -112 c-13 -9 -39 -30 -58 -46 -38 -32 -46 -31 -37 3 4 15
21 30 47 42 53 24 80 24 48 1z m-161 -89 c-10 -21 -32 -56 -48 -78 -39 -53
-63 -60 -428 -115 -170 -26 -625 -30 -645 -5 -20 24 27 35 145 35 283 0 663
70 890 165 105 44 110 44 86 -2z m89 -12 c0 -10 -30 -24 -37 -17 -3 3 -2 9 2
15 8 13 35 15 35 2z m4720 -75 c0 -2 -16 -51 -36 -108 -66 -192 -200 -376
-364 -497 -66 -49 -268 -171 -284 -171 -3 0 7 30 21 68 14 37 36 98 48 136 20
61 27 71 69 97 134 84 358 280 475 417 46 53 71 74 71 58z m-4438 -65 c37 -16
129 -73 205 -127 216 -153 198 -143 245 -136 23 3 94 30 158 60 225 106 545
228 555 212 10 -16 -195 -141 -325 -199 -122 -54 -222 -119 -309 -203 -50 -47
-91 -81 -90 -75 0 7 6 47 13 90 7 42 10 79 8 82 -13 13 -21 1 -32 -47 -160
-737 -205 -1114 -195 -1653 4 -267 4 -277 -11 -215 -8 36 -21 85 -29 111 -29
92 -48 378 -41 628 5 161 10 239 19 249 8 10 12 65 13 166 2 105 7 169 18 211
24 84 32 324 16 422 -7 43 -14 97 -15 121 -1 23 -9 50 -17 60 -9 9 -19 32 -23
50 -9 42 -43 66 -76 54 -13 -5 -55 -15 -94 -21 -92 -15 -116 -26 -140 -61 -11
-16 -21 -27 -24 -24 -8 7 84 273 94 273 6 0 40 -12 77 -28z m-263 -123 c0 -7
-13 -49 -27 -93 l-27 -80 -78 -38 -78 -37 -34 27 c-19 16 -35 33 -35 39 0 6
21 40 48 75 44 59 53 66 122 91 84 30 110 34 109 16z m-3285 -184 c31 -58 56
-107 56 -110 0 -3 -13 4 -28 15 -86 61 -241 88 -317 56 -34 -14 -35 -13 -25 6
28 51 162 124 252 138 3 1 31 -46 62 -105z m8077 49 c85 -46 149 -153 149
-247 0 -43 -27 -151 -46 -188 -26 -50 -93 -116 -132 -130 -59 -20 -180 -14
-229 10 -56 29 -103 78 -103 108 0 33 -23 86 -55 128 l-26 35 65 62 c37 34 93
98 126 143 91 124 85 119 146 113 31 -3 76 -17 105 -34z m-5205 -72 c28 -12
66 -37 84 -56 l32 -33 -26 -17 c-26 -17 -28 -17 -49 3 -46 43 -233 59 -311 27
-99 -41 -163 -82 -239 -154 -60 -56 -77 -92 -86 -178 l-8 -78 -2 81 c-1 93 16
162 57 222 45 67 136 141 220 179 74 33 81 34 177 30 75 -3 113 -9 151 -26z
m350 -95 c-10 -25 -23 -37 -43 -42 -46 -11 -80 -41 -244 -209 -182 -188 -239
-249 -239 -260 0 -4 -6 -13 -14 -19 -7 -6 -25 -38 -39 -71 -48 -117 -84 -210
-91 -237 l-6 -26 -47 18 c-26 10 -49 22 -51 28 -2 6 22 60 52 119 60 118 226
335 364 476 67 68 173 152 246 194 11 7 44 30 71 52 55 42 66 36 41 -23z
m-2595 -1 c87 -30 316 -89 409 -105 36 -7 68 -14 73 -17 4 -3 29 -6 55 -8 26
-2 99 -10 162 -18 63 -9 186 -19 273 -23 86 -4 157 -8 157 -10 0 -2 -31 -47
-68 -101 -88 -125 -141 -209 -153 -240 -7 -20 -14 -23 -41 -19 -18 3 -69 8
-113 11 -44 4 -99 11 -123 17 -39 10 -46 16 -72 68 -38 76 -77 120 -104 120
-29 0 -96 -58 -121 -104 -13 -23 -27 -36 -40 -36 -30 0 -101 24 -175 57 l-66
30 -65 184 c-37 101 -70 192 -74 202 -9 22 -2 22 86 -8z m4689 -13 c66 -37
178 -149 207 -206 21 -42 46 -171 30 -156 -3 3 -33 48 -68 100 -36 55 -103
137 -160 195 -55 55 -99 101 -99 103 0 7 47 -11 90 -36z m2030 -39 c0 -25 -86
-241 -101 -255 -24 -20 -165 -75 -242 -93 l-58 -13 -76 54 c-41 30 -80 54 -85
54 -21 0 -129 -64 -189 -113 l-63 -50 -136 0 c-74 0 -146 4 -160 10 -19 8 -35
34 -64 102 -22 50 -37 94 -34 96 3 3 48 0 99 -6 117 -14 407 -6 507 16 157 33
438 126 542 180 49 26 60 29 60 18z m244 -142 c20 -22 45 -86 46 -117 0 -16
-9 -24 -38 -32 -21 -6 -84 -34 -141 -62 -102 -50 -121 -53 -121 -23 0 9 -10
36 -21 60 -12 24 -20 46 -18 47 2 2 31 17 64 34 33 16 91 48 130 71 38 23 72
41 76 41 3 0 14 -9 23 -19z m-7320 -26 c23 -19 74 -50 114 -70 40 -19 72 -39
72 -43 0 -14 -29 -48 -30 -35 0 19 -167 96 -196 90 -21 -4 -24 -1 -24 29 0 33
8 64 17 64 2 0 24 -16 47 -35z m1865 -122 l0 -38 -114 -55 c-63 -30 -115 -61
-115 -68 0 -7 -4 -10 -10 -7 -5 3 -10 25 -10 48 l0 42 123 57 c67 31 123 56
125 57 1 1 2 -16 1 -36z m3754 -72 c17 -7 34 -25 43 -46 19 -47 17 -165 -5
-250 -21 -81 -12 -79 -162 -44 l-87 20 -6 43 c-4 24 -2 56 4 72 14 35 18 192
7 256 l-8 48 93 -44 c51 -24 106 -48 121 -55z m953 37 c52 -39 54 -42 34 -50
-26 -9 -179 -28 -234 -28 -35 0 -37 2 -25 17 18 21 140 101 157 102 7 1 38
-18 68 -41z m393 -17 c6 -10 15 -37 20 -60 l9 -42 -52 -33 c-29 -19 -63 -37
-76 -41 -27 -9 -26 0 11 105 12 36 24 71 25 78 5 19 52 14 63 -7z m-1167 -69
c15 -10 55 -44 88 -76 54 -52 60 -62 61 -99 2 -86 -5 -112 -44 -154 -17 -19
-31 -23 -78 -23 -32 0 -69 4 -83 9 -24 10 -24 10 -9 58 16 53 23 244 10 281
-7 18 -5 22 10 22 10 0 30 -8 45 -18z m-4306 -78 c-3 -8 -10 -13 -16 -9 -6 3
-5 16 3 32 9 21 13 23 15 9 2 -9 1 -24 -2 -32z m5122 -3 c20 -11 66 -40 101
-65 36 -25 71 -46 78 -46 7 0 19 12 26 26 l14 27 33 -59 c18 -33 46 -82 62
-111 16 -28 58 -96 93 -150 36 -54 65 -103 65 -109 0 -22 -107 -110 -179 -148
l-71 -37 -9 24 c-6 15 -20 26 -38 30 -28 6 -30 9 -47 104 -22 120 -76 292
-123 393 -74 158 -73 156 -5 121z m-5778 -5 c25 -8 36 -15 25 -15 -37 -2 -124
-89 -161 -162 -19 -38 -38 -69 -42 -69 -14 0 -87 -112 -142 -217 -29 -57 -59
-103 -65 -103 -6 0 -22 11 -34 24 l-23 25 44 73 c107 175 151 245 174 273 13
17 49 65 80 108 61 84 67 87 144 63z m6870 -114 c6 -48 16 -106 21 -130 5 -24
7 -47 5 -51 -3 -5 -29 -11 -57 -14 -119 -14 -294 -149 -369 -285 -34 -63 -47
-79 -57 -70 -7 6 -13 16 -13 22 0 7 -28 52 -61 102 -93 134 -309 474 -309 485
0 12 17 12 25 -1 10 -16 224 -81 316 -96 l86 -14 114 39 c117 39 195 75 239
110 22 18 26 19 37 5 6 -8 16 -54 23 -102z m-6543 -19 c9 -14 16 -40 15 -57
-1 -18 4 -68 13 -112 8 -43 15 -100 15 -125 0 -25 7 -59 15 -76 14 -27 13 -37
-5 -108 -19 -73 -34 -100 -50 -90 -4 2 -5 32 -3 67 8 108 -41 481 -72 552 -8
18 -6 18 24 -3 17 -13 39 -34 48 -48z m-1166 43 c26 -8 116 -29 200 -46 85
-18 158 -36 163 -41 24 -22 -69 -57 -219 -84 -49 -9 -116 -23 -148 -32 l-58
-16 -74 37 c-76 38 -160 100 -160 120 0 6 26 14 61 17 36 3 82 16 110 31 60
31 67 31 125 14z m6033 -61 c33 -50 56 -63 56 -33 0 6 12 27 26 46 24 31 28
33 37 17 16 -30 76 -261 107 -415 16 -80 32 -155 36 -167 6 -21 3 -23 -27 -23
-66 0 -218 28 -328 60 l-112 33 7 31 c22 106 91 329 115 372 17 29 29 66 29
86 0 29 6 48 15 48 1 0 19 -25 39 -55z m-5560 -27 c-4 -7 -33 -42 -65 -78 -31
-36 -102 -131 -158 -211 l-101 -147 -123 -30 -122 -31 -42 47 c-23 26 -51 70
-61 97 -23 60 -71 262 -64 269 2 3 19 -5 36 -18 40 -31 86 -49 163 -65 57 -13
69 -12 170 13 141 35 204 55 224 72 8 8 22 14 30 14 8 1 34 19 59 40 45 40 68
51 54 28z m1414 -96 c11 -15 23 -50 27 -77 11 -75 59 -300 100 -475 29 -124
36 -168 32 -220 l-5 -65 48 -45 c78 -73 85 -108 27 -126 -12 -3 -44 -20 -70
-36 -26 -17 -49 -29 -51 -27 -3 2 2 51 10 109 35 270 -3 489 -103 585 -41 40
-105 74 -140 75 -11 0 -52 -14 -90 -32 -37 -18 -72 -32 -77 -32 -4 -1 -9 15
-11 34 -1 19 -18 75 -38 124 -20 49 -34 92 -32 96 3 4 50 24 105 44 55 21 128
50 163 66 34 16 67 29 74 30 6 0 21 -12 31 -28z m3851 -14 c58 -12 107 -22
109 -23 3 -3 -84 -315 -90 -320 -2 -2 -24 3 -48 11 -28 10 -64 14 -94 11 -43
-4 -55 -10 -93 -51 -24 -25 -45 -46 -47 -46 -2 0 -6 42 -10 94 -7 92 -6 96 23
154 17 33 34 62 38 64 4 1 25 22 46 46 27 31 36 49 32 63 -8 25 1 24 134 -3z
m-3421 -104 c81 -37 235 -107 342 -156 107 -49 210 -95 228 -103 40 -18 41
-39 1 -76 -58 -54 -89 -47 -224 52 -22 17 -66 45 -98 64 -33 19 -116 77 -185
128 -70 52 -148 106 -174 121 -45 26 -56 36 -42 36 3 0 72 -30 152 -66z m2861
-78 c-3 -3 -40 -20 -84 -39 -94 -40 -193 -90 -364 -181 -68 -36 -128 -66 -134
-66 -48 0 187 125 433 231 122 53 162 67 149 55z m2020 -146 c24 -30 30 -46
25 -62 -9 -30 -205 -230 -284 -290 -57 -43 -65 -47 -71 -31 -4 10 -18 52 -31
95 -21 68 -22 79 -10 106 11 22 27 33 67 46 63 20 155 79 210 135 21 23 44 41
50 41 7 0 26 -18 44 -40z m-6772 -150 c7 0 13 -7 13 -15 0 -20 -6 -19 -31 6
-11 11 -26 19 -32 17 -7 -2 -31 -41 -54 -87 -41 -80 -43 -82 -53 -56 -14 36
-13 49 10 130 24 85 24 85 5 85 -10 0 -15 10 -15 30 0 31 0 30 72 -40 40 -38
78 -70 85 -70z m295 114 c105 -37 158 -67 165 -93 8 -32 -11 -126 -33 -159
-15 -23 -20 -24 -78 -19 -72 8 -160 34 -239 73 -51 25 -57 31 -57 59 0 40 28
124 49 149 14 16 25 17 84 11 38 -3 87 -13 109 -21z m6078 -3 c5 -11 10 -44
10 -74 0 -95 -38 -119 -255 -163 -44 -8 -88 -23 -98 -32 -30 -27 -40 -3 -27
66 6 34 8 84 4 111 l-6 50 69 21 c73 22 166 37 245 39 37 1 49 -3 58 -18z
m-573 -206 l61 -7 7 -87 c3 -47 9 -98 11 -113 5 -24 2 -28 -18 -27 -13 0 -56
12 -97 27 l-75 27 -37 73 c-20 40 -48 86 -63 101 -43 45 -34 50 62 30 48 -9
115 -21 149 -24z m-5021 -97 c-1 -50 -4 -63 -18 -66 -13 -3 -17 8 -20 58 -3
67 -3 70 22 70 15 0 17 -10 16 -62z m4194 -148 c0 -22 -18 -36 -30 -24 -11 12
7 57 20 49 5 -3 10 -15 10 -25z m-4320 16 c0 -2 -8 -10 -17 -17 -16 -13 -17
-12 -4 4 13 16 21 21 21 13z m4345 -141 c110 -64 156 -120 205 -246 24 -63 30
-93 30 -157 0 -88 -10 -109 -55 -114 l-30 -3 -5 70 c-7 83 -42 166 -92 216
-92 92 -156 129 -224 129 -19 0 -34 3 -34 7 0 4 18 37 40 74 l40 67 42 -10
c24 -5 61 -20 83 -33z m-3183 -110 c6 -14 9 -27 7 -28 -2 -2 -38 -25 -79 -52
-159 -101 -209 -144 -241 -206 -16 -33 -31 -59 -33 -59 -9 0 35 135 54 165 33
53 133 140 201 174 34 17 66 31 71 31 5 0 14 -11 20 -25z m973 -226 c148 -43
342 -88 412 -96 79 -9 366 39 547 92 49 14 90 24 92 22 6 -5 -138 -382 -150
-394 -10 -11 -151 -31 -272 -39 l-102 -7 -17 37 c-20 41 -108 124 -142 132
-33 9 -59 -11 -115 -87 l-51 -71 -51 7 c-78 10 -249 46 -268 56 -10 5 -22 28
-28 52 -6 23 -24 83 -40 132 -15 50 -35 118 -44 152 -9 34 -19 69 -22 77 -5
13 4 12 53 -5 32 -11 121 -38 198 -60z m1455 -262 c0 -17 -11 -28 -46 -45 -25
-12 -66 -42 -92 -66 -67 -62 -148 -69 -126 -11 4 8 16 15 29 15 12 0 34 9 48
20 21 17 176 109 185 110 1 0 2 -10 2 -23z m-1853 -67 c95 -26 113 -36 113
-61 0 -16 -4 -19 -17 -14 -10 4 -49 13 -88 21 -80 17 -117 37 -109 59 8 19 9
19 101 -5z m371 -106 c12 -2 22 -11 22 -19 0 -12 -17 -15 -85 -15 -83 0 -91 3
-80 32 6 14 81 15 143 2z m1095 -14 c-5 -20 -107 -82 -118 -72 -3 3 -5 15 -5
28 0 16 7 24 28 28 15 4 41 15 57 26 33 22 45 19 38 -10z m-164 -319 c37 -123
38 -148 10 -202 -21 -42 -14 -69 16 -69 14 0 29 -29 20 -38 -3 -3 -22 -5 -42
-5 -56 2 -65 30 -38 121 15 50 15 54 -6 100 -19 43 -78 185 -100 239 -7 19 -2
29 29 59 l37 35 21 -68 c12 -37 36 -115 53 -172z m-843 114 c-7 -20 -79 -126
-135 -200 -25 -33 -53 -71 -61 -83 l-15 -23 -23 22 -24 21 29 32 c16 17 37 44
47 60 22 34 168 186 180 186 4 0 6 -7 2 -15z m-167 -41 c2 -2 -2 -12 -10 -23
-28 -38 -344 -401 -349 -401 -4 0 -37 24 -74 54 -37 29 -102 70 -144 91 -88
43 -95 34 81 106 150 62 342 156 358 176 10 11 26 13 73 8 34 -4 63 -9 65 -11z
m1412 -204 c22 -12 60 -36 84 -55 50 -37 50 -38 -33 -79 -29 -15 -95 -63 -147
-106 -53 -44 -100 -80 -105 -80 -6 0 -10 21 -10 48 0 26 -18 112 -40 191 -44
159 -62 249 -55 262 3 4 64 -30 135 -76 72 -47 148 -94 171 -105z m778 -142
c1 -37 6 -100 11 -140 l10 -74 -146 -148 c-80 -81 -148 -146 -150 -144 -2 2 3
40 11 83 29 174 29 211 -1 346 -5 24 -3 26 19 22 48 -9 159 66 212 142 l19 29
7 -24 c4 -14 7 -55 8 -92z m-3367 13 c47 -3 89 -8 91 -11 3 -3 1 -25 -3 -50
-5 -25 -9 -62 -10 -82 0 -20 -4 -39 -8 -42 -14 -9 -112 63 -106 78 3 7 -21 37
-58 71 -62 58 -63 58 -28 51 19 -5 74 -11 122 -15z m998 -50 c13 -26 5 -46
-27 -60 -14 -6 -27 -10 -28 -9 -1 2 -10 18 -19 36 -17 33 -17 34 1 28 11 -3
28 1 39 9 24 18 21 18 34 -4z m540 -85 l125 -33 -1 -75 c-2 -135 -27 -154
-158 -122 -74 17 -223 70 -242 86 -23 17 35 179 68 190 15 5 34 1 208 -46z
m740 -135 c0 -23 -16 -36 -25 -21 -9 14 1 40 15 40 5 0 10 -9 10 -19z"/>
<path d="M5980 6211 c0 -6 5 -13 10 -16 6 -3 10 1 10 9 0 9 -4 16 -10 16 -5 0
-10 -4 -10 -9z"/>
<path d="M5543 5593 c-3 -10 -8 -22 -10 -28 -3 -5 3 -1 11 9 16 20 21 36 11
36 -3 0 -8 -8 -12 -17z"/>
<path d="M4711 6090 c-111 -55 -204 -100 -206 -100 -1 0 -38 27 -81 60 -72 55
-114 74 -114 51 0 -14 150 -131 177 -137 29 -8 124 33 317 134 117 62 143 81
119 89 -5 2 -100 -42 -212 -97z"/>
<path d="M4174 5830 c18 -114 37 -172 52 -158 7 7 -7 89 -27 161 -14 51 -33
49 -25 -3z"/>
<path d="M740 5535 c0 -8 5 -15 10 -15 6 0 10 7 10 15 0 8 -4 15 -10 15 -5 0
-10 -7 -10 -15z"/>
<path d="M700 5515 c0 -8 5 -15 10 -15 6 0 10 7 10 15 0 8 -4 15 -10 15 -5 0
-10 -7 -10 -15z"/>
</g>
</svg>
